<svg width="114" height="39" fill="none" xmlns="http://www.w3.org/2000/svg"><path d="M50.014 24.703h-1.973V17.04h1.855v1.253c.394-.533.84-.921 1.337-1.164.503-.248 1.094-.372 1.773-.372.673 0 1.23.127 1.673.38.443.248.78.628 1.01 1.14.454-.528.936-.913 1.445-1.156.516-.242 1.1-.364 1.755-.364.57 0 1.067.095 1.492.283.424.184.755.453.991.809.11.167.188.366.237.598.054.232.081.563.081.994v5.262h-1.973v-3.936c0-1.03-.124-1.706-.373-2.03-.242-.328-.679-.492-1.31-.492-.775 0-1.33.22-1.663.662-.328.437-.492 1.205-.492 2.304v3.492h-1.991v-3.936c0-.949-.13-1.606-.391-1.973-.255-.366-.697-.55-1.328-.55a2.4 2.4 0 00-1.064.235 1.921 1.921 0 00-.764.647 1.707 1.707 0 00-.254.654c-.049.26-.073.736-.073 1.431v3.492zm22.434 0h-1.973v-.994c-.352.442-.764.77-1.237.986-.466.216-1.003.323-1.61.323-1.218 0-2.179-.369-2.882-1.107-.697-.744-1.046-1.76-1.046-3.047 0-1.224.358-2.21 1.073-2.959.716-.754 1.65-1.132 2.801-1.132.703 0 1.304.133 1.8.397.504.258.87.633 1.101 1.123V17.04h1.973v7.663zm-1.918-3.855c0-.793-.21-1.41-.628-1.852-.412-.441-.991-.662-1.737-.662-.746 0-1.334.229-1.764.687-.424.452-.637 1.083-.637 1.891 0 .814.207 1.442.619 1.884.412.442.994.663 1.746.663.71 0 1.285-.24 1.728-.72.448-.48.673-1.11.673-1.892zm10.84 0c0-.793-.21-1.41-.628-1.852-.412-.441-.991-.662-1.737-.662-.746 0-1.334.229-1.764.687-.425.452-.637 1.083-.637 1.891 0 .814.206 1.442.619 1.884.412.442.994.663 1.746.663.709 0 1.285-.24 1.728-.72.448-.48.672-1.11.672-1.892zm1.918 3.378c0 1.498-.336 2.552-1.01 3.161-.672.614-1.806.921-3.4.921-1.189 0-2.137-.223-2.847-.67-.709-.442-1.07-1.032-1.082-1.77l2.119-.009c.03.329.203.58.518.752.316.172.758.259 1.328.259.843 0 1.449-.165 1.819-.493.37-.33.558-.879.564-1.65l.018-1.018c-.352.442-.764.77-1.237.986-.467.216-1.003.323-1.61.323-1.218 0-2.179-.369-2.882-1.107-.697-.744-1.046-1.76-1.046-3.047 0-1.224.358-2.21 1.073-2.959.715-.754 1.649-1.132 2.8-1.132.704 0 1.304.133 1.802.397.503.258.87.633 1.1 1.123V17.04h1.973v7.186zm10.976.938l-1.991-3.985a13.02 13.02 0 01-.373-.816 14.41 14.41 0 01-.264-.712c-.133.35-.251.652-.354.905-.103.248-.185.434-.246.558l-2.046 4.05-4.465-8.124h2.1l1.938 3.694c.078.157.154.372.227.647.079.27.145.569.2.897.006-.194.042-.396.11-.606a5.27 5.27 0 01.336-.776l2.11-4.139h.163l2.146 4.139c.133.259.23.498.291.72.067.22.106.441.118.662.055-.29.125-.566.21-.824a4.67 4.67 0 01.29-.704l1.901-3.71h2.083l-4.484 8.124zm13.832-.461h-1.973v-.994a3.35 3.35 0 01-1.237.986c-.467.216-1.003.323-1.61.323-1.218 0-2.179-.369-2.882-1.107-.698-.744-1.046-1.76-1.046-3.047 0-1.224.358-2.21 1.073-2.959.715-.754 1.649-1.132 2.801-1.132.703 0 1.303.133 1.8.397.504.258.87.633 1.101 1.123V17.04h1.973v7.663zm-1.919-3.855c0-.793-.209-1.41-.627-1.852-.412-.441-.991-.662-1.737-.662-.746 0-1.334.229-1.764.687-.425.452-.637 1.083-.637 1.891 0 .814.206 1.442.618 1.884.413.442.995.663 1.746.663.71 0 1.286-.24 1.728-.72.449-.48.673-1.11.673-1.892zm4.474-7.122c0-.296.122-.552.364-.768.249-.215.543-.323.882-.323.352 0 .643.105.873.315a.981.981 0 01.355.776c0 .313-.118.577-.355.792-.236.21-.527.316-.873.316-.339 0-.633-.108-.882-.324a1.028 1.028 0 01-.364-.784zm.264 10.977V17.04h1.973v7.663h-1.973z" fill="#fff"/><path d="M14.005 7.536s-5.5.035-6.005.088c-.971.099-3.13.522-4.018 2.105-1.21 2.156 1.068 5.212 1.068 5.212l2.864 4.07" stroke="#BFECFF" stroke-width="1.5" stroke-linecap="round"/><path d="M10.83 30.81c.713-.396.93-1.23.485-1.865-.446-.634-1.386-.827-2.1-.43l-.86.478c-.714.396-.93 1.232-.485 1.866.446.634 1.386.826 2.099.43l.861-.478zm6.386-10.642c.713-.397.93-1.232.484-1.866-.445-.634-1.385-.827-2.098-.43l-8.325 4.624c-.713.396-.93 1.232-.484 1.866.446.634 1.385.827 2.099.43l8.324-4.625zm2.989 5.436c.713-.397.93-1.232.484-1.866-.446-.634-1.386-.827-2.099-.43l-4.757 2.642c-.713.396-.93 1.232-.484 1.866.446.634 1.386.826 2.099.43l4.757-2.642zm17.535-6.902c.555-.308.724-.958.377-1.45-.347-.494-1.078-.644-1.633-.336-.555.308-.723.958-.376 1.451.346.493 1.077.643 1.632.335z" fill="#fff"/><path fill-rule="evenodd" clip-rule="evenodd" d="M30.851 22.647l-2.68 4.83c-1.217 2.192-2.237 4.032-2.448 4.403-.806 1.424-1.59 1.905-2.537 1.822-.733-.06-1.7-.879-1.765-2.51-.064-1.632-.284-6.1-4.147-3.955-.067-.095-.099-.24-.134-.398-.041-.186-.086-.389-.194-.543-.901-1.281-4.609-6.607-4.34-6.756.27-.15 1.512-1.174.732-2.352-.671-1.013-1.77-1.593-2.958-2.22a58.723 58.723 0 01-.582-.31c-1.803-1.028-2.221-1.824-1.8-2.889.536-1.004 2.3-1 3.022-.98.707.021 6.107.046 11.516.054l-3.524 8.592a2.04 2.04 0 00.055 1.543c.395.43.96.71 1.58.782l10.202.885.002.002zM26.62 10.845a1.65 1.65 0 00-.449.147 1.421 1.421 0 00-.671.68c-1.24 2.517-1.587 3.318-2.08 4.458l-.368.846-.071.177c-.212.527-.604 1.5-.332 1.885.233.332.756.38 1.752.47a451.9 451.9 0 007.028.598c.342-.03.666-.148.934-.34a1.69 1.69 0 00.176-.145l.262-.466 2.58-4.564.027-.048c.526-.928 2.138-3.772-2.677-3.72-1.378.014-3.6.02-6.111.022z" fill="#fff"/><path d="M39.776 14.14s1.774-2.469.359-4.524c-1.415-2.056-5.448-2.087-5.448-2.087l-14.994.072" stroke="#FE60B7" stroke-width="1.5" stroke-linecap="round"/><path d="M16.314 31.163s2.958 4.234 3.104 4.416c.406.509 2.113 2.407 4.399 2.213 2.698-.23 4.408-3.565 4.408-3.565l7.1-12.636" stroke="#A072FD" stroke-width="1.5" stroke-linecap="round"/></svg>